<svg width="25" height="25" viewBox="0 0 25 25" fill="none" xmlns="http://www.w3.org/2000/svg">
<path d="M4.72087 0.880663C4.58273 0.366537 4.11468 0 3.57137 0H0V2.38097H2.54876L4.73922 16.8444L4.76674 16.976C4.90488 17.4902 5.37291 17.8566 5.91624 17.8566H21.4335L21.5713 17.8487C22.0697 17.7909 22.4849 17.4234 22.5956 16.9237L24.9713 6.20627L24.9938 6.0675C25.0647 5.3776 24.5229 4.75814 23.8091 4.75814L5.31657 4.75835L4.74838 1.01213L4.72087 0.880663ZM8.33318 25C7.01824 25 5.95227 23.9341 5.95227 22.6191C5.95227 21.3041 7.01824 20.2382 8.33318 20.2382C9.64812 20.2382 10.7141 21.3041 10.7141 22.6191C10.7141 23.9341 9.64812 25 8.33318 25ZM19.0473 25C17.7323 25 16.6664 23.9341 16.6664 22.6191C16.6664 21.3041 17.7323 20.2382 19.0473 20.2382C20.3622 20.2382 21.4281 21.3041 21.4281 22.6191C21.4281 23.9341 20.3622 25 19.0473 25Z" fill="white"/>
</svg>
