<svg width="57" height="56" viewBox="0 0 57 56" fill="none" xmlns="http://www.w3.org/2000/svg">
<path d="M56.9805 39.732C56.9805 49.924 50.9045 56 40.7125 56H37.3805C35.8405 56 34.5805 54.74 34.5805 53.2V37.044C34.5805 36.288 35.1965 35.644 35.9525 35.644L40.8805 35.56C41.2725 35.532 41.6085 35.252 41.6925 34.86L42.6725 29.512C42.7565 29.008 42.3645 28.532 41.8325 28.532L35.8685 28.616C35.0845 28.616 34.4685 28 34.4405 27.244L34.3285 20.384C34.3285 19.936 34.6925 19.544 35.1685 19.544L41.8885 19.432C42.3645 19.432 42.7285 19.068 42.7285 18.592L42.6165 11.872C42.6165 11.396 42.2525 11.032 41.7765 11.032L34.2165 11.144C29.5685 11.228 25.8725 15.036 25.9565 19.684L26.0965 27.384C26.1245 28.168 25.5085 28.784 24.7245 28.812L21.3645 28.868C20.8885 28.868 20.5245 29.232 20.5245 29.708L20.6085 35.028C20.6085 35.504 20.9725 35.868 21.4485 35.868L24.8085 35.812C25.5925 35.812 26.2085 36.428 26.2365 37.184L26.4885 53.144C26.5165 54.712 25.2565 56 23.6885 56H17.2485C7.05647 56 0.980469 49.924 0.980469 39.704V16.268C0.980469 6.076 7.05647 0 17.2485 0H40.7125C50.9045 0 56.9805 6.076 56.9805 16.268V39.732Z" fill="white"/>
</svg>
