<svg width="30" height="30" viewBox="0 0 30 30" fill="none" xmlns="http://www.w3.org/2000/svg">
<path d="M5.66504 1.0568C5.49927 0.439844 4.93762 0 4.28564 0H0V2.85717H3.05851L5.68707 20.2133L5.72009 20.3713C5.88586 20.9882 6.44749 21.4279 7.09949 21.4279H25.7202L25.8856 21.4185C26.4836 21.349 26.9819 20.908 27.1147 20.3085L29.9655 7.44752L29.9925 7.281C30.0776 6.45313 29.4275 5.70977 28.571 5.70977L6.37988 5.71002L5.69806 1.21455L5.66504 1.0568ZM9.99981 30C8.42188 30 7.14273 28.7209 7.14273 27.1429C7.14273 25.5649 8.42188 24.2858 9.99981 24.2858C11.5777 24.2858 12.8569 25.5649 12.8569 27.1429C12.8569 28.7209 11.5777 30 9.99981 30ZM22.8567 30C21.2787 30 19.9997 28.7209 19.9997 27.1429C19.9997 25.5649 21.2787 24.2858 22.8567 24.2858C24.4347 24.2858 25.7137 25.5649 25.7137 27.1429C25.7137 28.7209 24.4347 30 22.8567 30Z" fill="#001018"/>
</svg>
