<svg width="56" height="56" viewBox="0 0 56 56" fill="none" xmlns="http://www.w3.org/2000/svg">
<path d="M39.7518 0H16.2761C6.07903 0 0 6.076 0 16.268V39.704C0 49.924 6.07903 56 16.2761 56H39.7238C49.9209 56 55.9999 49.924 55.9999 39.732V16.268C56.0279 6.076 49.9489 0 39.7518 0ZM28.014 38.864C22.019 38.864 17.1445 33.992 17.1445 28C17.1445 22.008 22.019 17.136 28.014 17.136C34.0089 17.136 38.8834 22.008 38.8834 28C38.8834 33.992 34.0089 38.864 28.014 38.864ZM44.5982 13.664C44.4582 14 44.2621 14.308 44.0099 14.588C43.7298 14.84 43.4216 15.036 43.0855 15.176C42.7493 15.316 42.3851 15.4 42.0209 15.4C41.2646 15.4 40.5642 15.12 40.0319 14.588C39.7798 14.308 39.5837 14 39.4437 13.664C39.3036 13.328 39.2195 12.964 39.2195 12.6C39.2195 12.236 39.3036 11.872 39.4437 11.536C39.5837 11.172 39.7798 10.892 40.0319 10.612C40.6763 9.968 41.6568 9.66 42.5532 9.856C42.7493 9.884 42.9174 9.94 43.0855 10.024C43.2536 10.08 43.4216 10.164 43.5897 10.276C43.7298 10.36 43.8699 10.5 44.0099 10.612C44.2621 10.892 44.4582 11.172 44.5982 11.536C44.7383 11.872 44.8223 12.236 44.8223 12.6C44.8223 12.964 44.7383 13.328 44.5982 13.664Z" fill="white"/>
</svg>
